<?xml version="1.0" standalone="no"?>
<!DOCTYPE svg PUBLIC "-//W3C//DTD SVG 20010904//EN"
 "http://www.w3.org/TR/2001/REC-SVG-20010904/DTD/svg10.dtd">
<svg version="1.0" xmlns="http://www.w3.org/2000/svg"
 width="754.000000pt" height="754.000000pt" viewBox="0 0 754.000000 754.000000"
 preserveAspectRatio="xMidYMid meet">

<g transform="translate(0.000000,754.000000) scale(0.100000,-0.100000)"
fill="#000000" stroke="none">
<path d="M976 5518 c-229 -492 -291 -960 -174 -1302 81 -237 227 -415 462
-563 245 -155 487 -206 883 -183 182 10 372 31 466 50 77 16 169 12 242 -11
37 -11 69 -18 72 -16 2 3 -19 24 -49 48 -157 125 -406 165 -688 111 -466 -90
-914 118 -1105 511 -117 243 -132 493 -48 830 39 156 49 145 57 -63 14 -376
166 -667 449 -854 140 -93 350 -175 489 -191 l53 -7 -99 52 c-314 161 -533
367 -656 615 -85 171 -136 430 -69 348 25 -29 144 -120 245 -186 262 -172 604
-316 979 -412 175 -45 254 -74 376 -137 310 -160 515 -412 574 -707 23 -111
16 -335 -14 -470 -12 -52 -21 -115 -21 -140 l0 -46 -44 77 c-58 101 -139 219
-194 279 -50 56 -120 114 -128 106 -9 -9 45 -214 81 -307 61 -159 128 -274
220 -375 68 -75 96 -212 71 -345 -45 -242 -231 -469 -563 -690 -118 -78 -115
-84 35 -68 350 37 590 228 696 552 58 176 68 309 56 741 -3 134 -1 178 17 270
103 529 -62 917 -517 1219 -216 143 -354 204 -683 300 -296 87 -456 146 -611
223 -367 184 -601 406 -750 712 -25 52 -46 101 -46 108 0 35 -26 4 -64 -79z"/>
<path d="M6500 5597 c0 -7 -21 -56 -46 -108 -149 -306 -383 -528 -750 -712
-155 -77 -315 -136 -611 -223 -329 -96 -467 -157 -683 -300 -455 -302 -620
-690 -517 -1219 18 -92 20 -136 17 -270 -12 -432 -2 -565 56 -741 106 -324
346 -515 696 -552 150 -16 153 -10 35 68 -332 221 -518 448 -563 690 -25 133
3 270 71 345 92 101 159 216 220 375 36 93 90 298 81 307 -8 8 -78 -50 -128
-106 -55 -60 -136 -178 -194 -279 l-44 -77 0 46 c0 25 -9 88 -21 140 -30 135
-37 359 -14 470 59 295 264 547 574 707 122 63 201 92 376 137 375 96 717 240
979 412 101 66 220 157 245 186 67 82 16 -177 -69 -348 -123 -248 -342 -454
-656 -615 l-99 -52 53 7 c139 16 349 98 489 191 283 187 435 478 449 854 8
208 18 219 57 63 65 -261 70 -465 16 -663 -132 -489 -635 -781 -1169 -678
-223 43 -418 28 -582 -45 -54 -24 -164 -105 -155 -114 3 -2 35 5 72 16 73 23
165 27 242 11 94 -19 284 -40 466 -50 306 -18 523 10 708 90 159 68 351 205
445 317 265 317 319 739 162 1267 -68 231 -208 535 -208 453z"/>
<path d="M3500 5434 c-187 -22 -293 -39 -395 -64 -344 -82 -535 -208 -535
-354 0 -118 155 -238 405 -315 556 -171 1385 -134 1796 80 425 221 172 521
-534 631 -105 16 -190 21 -417 23 -157 2 -301 1 -320 -1z m655 -199 c289 -39
541 -121 614 -198 l23 -26 -61 -40 c-67 -43 -185 -89 -313 -122 -336 -85 -875
-91 -1228 -13 -192 43 -369 113 -416 166 -18 19 -18 20 6 39 112 88 386 171
655 198 61 6 128 13 150 15 83 8 464 -4 570 -19z"/>
<path d="M1000 3570 c0 -236 177 -462 474 -605 175 -84 237 -100 391 -98 105
1 149 6 230 27 128 33 293 115 416 207 92 69 289 255 289 273 0 17 -108 -3
-183 -34 -42 -17 -115 -59 -164 -92 -112 -78 -185 -112 -309 -144 -185 -48
-388 -43 -554 11 -77 25 -201 92 -207 110 -2 7 88 27 224 50 l228 40 -90 7
c-261 21 -487 102 -655 234 -44 35 -82 64 -85 64 -3 0 -5 -22 -5 -50z"/>
<path d="M6447 3556 c-162 -131 -391 -213 -652 -234 l-90 -7 228 -40 c136 -23
226 -43 224 -50 -6 -18 -130 -85 -207 -110 -166 -54 -369 -59 -554 -11 -124
32 -197 66 -309 144 -49 33 -122 75 -164 92 -75 31 -183 51 -183 34 0 -18 197
-204 289 -273 123 -92 288 -174 416 -207 81 -21 125 -26 230 -27 154 -2 216
14 391 98 297 143 474 369 474 605 0 28 -3 50 -7 49 -5 0 -43 -29 -86 -63z"/>
<path d="M2695 2992 c-100 -160 -293 -287 -504 -332 -133 -28 -227 -33 -388
-19 -170 14 -219 9 -235 -25 -37 -82 172 -166 415 -166 141 0 241 21 352 75
172 83 288 222 372 443 13 36 22 66 21 68 -2 1 -17 -18 -33 -44z"/>
<path d="M4815 3020 c13 -46 73 -181 107 -238 18 -31 67 -91 109 -133 133
-135 303 -199 526 -199 243 0 452 84 415 166 -16 34 -65 39 -235 25 -81 -7
-182 -10 -225 -6 -296 26 -519 143 -659 345 -25 37 -42 54 -38 40z"/>
<path d="M2951 2803 c-98 -193 -281 -374 -466 -459 -130 -60 -209 -76 -386
-79 -159 -2 -179 -6 -179 -30 0 -36 121 -80 269 -96 79 -9 112 -8 189 5 244
42 414 196 531 477 37 89 84 239 75 239 -2 0 -17 -26 -33 -57z"/>
<path d="M4572 2788 c26 -94 89 -246 129 -312 154 -251 379 -368 650 -337 148
16 269 60 269 96 0 24 -20 28 -179 30 -177 3 -256 19 -386 79 -185 85 -368
266 -466 459 -16 31 -31 57 -33 57 -3 0 5 -33 16 -72z"/>
<path d="M3175 2498 c-17 -56 -107 -188 -183 -268 -166 -177 -335 -275 -587
-340 -60 -15 -110 -32 -110 -37 0 -16 82 -35 175 -40 117 -6 233 19 354 76
186 88 299 211 350 381 21 69 33 234 18 244 -6 3 -14 -4 -17 -16z"/>
<path d="M4344 2506 c-10 -27 4 -174 22 -236 50 -170 164 -293 350 -381 121
-57 237 -82 354 -76 93 5 175 24 175 40 0 5 -49 22 -110 37 -246 63 -417 160
-577 328 -85 89 -123 142 -172 238 -27 52 -37 64 -42 50z"/>
</g>
</svg>
